<svg width="668" height="442" viewBox="0 0 668 442" fill="none" xmlns="http://www.w3.org/2000/svg">
<path d="M99 16H191L260 426.5L328 16L420 16.0001" stroke="#D9D9D9" stroke-width="7"/>
<path d="M502.414 14.5858C501.633 13.8047 500.367 13.8047 499.586 14.5858L486.858 27.3137C486.077 28.0948 486.077 29.3611 486.858 30.1421C487.639 30.9232 488.905 30.9232 489.686 30.1421L501 18.8284L512.314 30.1421C513.095 30.9232 514.361 30.9232 515.142 30.1421C515.923 29.3611 515.923 28.0948 515.142 27.3137L502.414 14.5858ZM499.586 428.414C500.367 429.195 501.633 429.195 502.414 428.414L515.142 415.686C515.923 414.905 515.923 413.639 515.142 412.858C514.361 412.077 513.095 412.077 512.314 412.858L501 424.172L489.686 412.858C488.905 412.077 487.639 412.077 486.858 412.858C486.077 413.639 486.077 414.905 486.858 415.686L499.586 428.414ZM501 16L499 16L499 427L501 427L503 427L503 16L501 16Z" fill="#D9D9D9"/>
<path d="M556.482 16.566V9.78C556.482 5.412 559.368 4.086 562.02 4.086C564.698 4.086 567.636 5.412 567.636 9.78V16.566C567.636 20.986 564.724 22.26 562.072 22.26C559.42 22.26 556.482 20.96 556.482 16.566ZM559.16 9.78V16.566C559.16 19.244 560.746 19.816 562.072 19.816C563.398 19.816 564.958 19.244 564.958 16.566V9.78C564.958 7.102 563.372 6.556 562.046 6.556C560.72 6.556 559.16 7.128 559.16 9.78Z" fill="white"/>
<path d="M561.006 415.372V433H558.328V419.428C557.314 420.39 556.534 420.91 555.234 421.404V419.324C557.652 418.18 558.354 416.906 559.082 415.372H561.006Z" fill="white"/>
</svg>
